<svg xmlns="http://www.w3.org/2000/svg" version="1.1" xmlns:xlink="http://www.w3.org/1999/xlink" xmlns:svgjs="http://svgjs.dev/svgjs" width="1000" height="1000" viewBox="0 0 1000 1000"><rect width="1000" height="1000" fill="#ffffff"></rect><g transform="matrix(0.7,0,0,0.7,149.5757658274071,460.83290564993354)"><svg viewBox="0 0 396 44" data-background-color="#ffffff" preserveAspectRatio="xMidYMid meet" height="111" width="1000" xmlns="http://www.w3.org/2000/svg" xmlns:xlink="http://www.w3.org/1999/xlink"><defs></defs><g id="tight-bounds" transform="matrix(1,0,0,1,0.23999564822975117,0.17956436812002607)"><svg viewBox="0 0 395.52 43.640871263759934" height="43.640871263759934" width="395.52"><g><svg viewBox="0 0 484.83867923337823 53.49611241938526" height="43.640871263759934" width="395.52"><g transform="matrix(1,0,0,1,89.31867923337822,0.9419238317933285)"><svg viewBox="0 0 395.52 51.612264755798606" height="51.612264755798606" width="395.52"><g><svg viewBox="0 0 395.52 51.612264755798606" height="51.612264755798606" width="395.52"><g><svg viewBox="0 0 395.52 51.612264755798606" height="51.612264755798606" width="395.52"><g transform="matrix(1,0,0,1,0,0)"><svg width="395.52" viewBox="3.6600000858306885 -30.399999618530273 258.92999267578125 33.790000915527344" height="51.612264755798606" data-palette-color="#046380"><path d="M3.66 0L3.66-3.91 10.28-3.91 10.28-26.49 3.66-26.49 3.66-30.4 21.92-30.4Q25.17-30.4 27.64-30.24 30.1-30.08 32.1-29.54L32.1-29.54Q37.35-28.1 39.97-24.58 42.58-21.07 42.58-15.21L42.58-15.21Q42.58-12.52 41.96-10.24 41.33-7.96 40.05-6.14 38.77-4.32 36.83-3.03 34.89-1.73 32.25-1.03L32.25-1.03Q30.27-0.49 27.77-0.24 25.27 0 22.17 0L22.17 0 3.66 0ZM5.22 1.71L21.39 1.71Q23.1 1.71 24.76 1.62 26.42 1.54 27.91 1.39 29.39 1.25 30.65 1.04 31.91 0.83 32.84 0.59L32.84 0.59Q35.47-0.1 37.61-1.5 39.75-2.91 41.24-4.92 42.72-6.93 43.53-9.53 44.34-12.13 44.34-15.21L44.34-15.21Q44.34-17.48 43.92-19.32 43.51-21.17 42.7-22.69 41.89-24.22 40.71-25.49 39.53-26.76 37.99-27.88L37.99-27.88Q39.77-26.98 41.14-25.78 42.5-24.58 43.43-23.02 44.36-21.46 44.85-19.52 45.34-17.58 45.34-15.21L45.34-15.21Q45.34-12.06 44.52-9.34 43.7-6.62 42.14-4.46 40.58-2.29 38.28-0.78 35.99 0.73 33.03 1.49L33.03 1.49Q30.96 2 28.08 2.32 25.2 2.64 21.39 2.64L21.39 2.64 5.22 2.64 5.22 1.71ZM15.77-3.91L23.34-3.91Q26.95-3.91 29.44-4.54 31.93-5.18 33.47-6.49 35.01-7.81 35.69-9.86 36.38-11.91 36.38-14.77L36.38-14.77 36.38-15.67Q36.38-18.46 35.68-20.48 34.99-22.51 33.42-23.85 31.86-25.2 29.33-25.84 26.81-26.49 23.12-26.49L23.12-26.49 15.77-26.49 15.77-3.91ZM17.48-5.37L17.48-24.78 22.66-24.78Q25.1-24.78 26.78-24.6 28.47-24.41 29.65-24.04 30.83-23.66 31.7-23.05 32.57-22.44 33.4-21.58L33.4-21.58Q32.5-22.14 31.51-22.57 30.52-23 29.27-23.28 28.03-23.56 26.42-23.71 24.8-23.85 22.66-23.85L22.66-23.85 18.46-23.85 18.46-5.37 17.48-5.37ZM5.13-23.85L5.13-24.78 9.25-24.78 9.25-23.85 5.13-23.85ZM50.78-11.4L50.78-11.4Q50.78-14.06 51.93-16.42 53.07-18.77 55.14-20.52 57.2-22.27 60.08-23.28 62.96-24.29 66.4-24.29L66.4-24.29Q70.02-24.29 72.86-23.33 75.71-22.36 77.67-20.65 79.64-18.95 80.67-16.6 81.71-14.26 81.71-11.5L81.71-11.5Q81.71-8.84 80.58-6.59 79.44-4.35 77.35-2.72 75.27-1.1 72.35-0.18 69.43 0.73 65.84 0.73L65.84 0.73Q62.45 0.73 59.68-0.28 56.91-1.29 54.93-2.98 52.95-4.66 51.87-6.85 50.78-9.03 50.78-11.4ZM54.61-1.12L54.61-1.12Q56.98 0.59 59.85 1.51 62.72 2.44 66.33 2.44L66.33 2.44Q69.7 2.44 72.8 1.53 75.9 0.61 78.27-1.17 80.64-2.95 82.05-5.55 83.47-8.15 83.47-11.5L83.47-11.5Q83.47-13.13 83.02-14.81 82.57-16.48 81.75-18.02 80.93-19.56 79.76-20.89 78.59-22.22 77.15-23.14L77.15-23.14Q78.78-22.41 80.14-21.22 81.49-20.02 82.44-18.49 83.4-16.97 83.92-15.19 84.45-13.4 84.45-11.5L84.45-11.5Q84.45-9.11 83.76-7.07 83.08-5.03 81.87-3.38 80.66-1.73 78.99-0.46 77.32 0.81 75.31 1.65 73.31 2.49 71.05 2.93 68.8 3.37 66.45 3.37L66.45 3.37Q64.5 3.37 62.72 3.06 60.94 2.76 59.41 2.19 57.88 1.61 56.66 0.78 55.44-0.05 54.61-1.12ZM56.2-11.5L56.2-11.5Q56.2-9.62 56.92-8.07 57.64-6.52 58.96-5.41 60.28-4.3 62.12-3.69 63.96-3.08 66.21-3.08L66.21-3.08Q68.48-3.08 70.33-3.7 72.19-4.32 73.53-5.43 74.88-6.54 75.61-8.09 76.34-9.64 76.34-11.5L76.34-11.5Q76.34-13.33 75.61-14.95 74.88-16.58 73.56-17.81 72.24-19.04 70.4-19.76 68.55-20.48 66.33-20.48L66.33-20.48Q64.01-20.48 62.14-19.79 60.28-19.09 58.96-17.88 57.64-16.67 56.92-15.04 56.2-13.4 56.2-11.5ZM57.91-11.4L57.91-11.4Q57.91-12.94 58.52-14.29 59.13-15.65 60.24-16.64 61.35-17.63 62.9-18.2 64.45-18.77 66.33-18.77L66.33-18.77Q67.53-18.77 68.65-18.52 69.77-18.26 70.73-17.77 71.68-17.29 72.41-16.59 73.14-15.89 73.58-15.01L73.58-15.01Q71.97-16.48 70.22-17.16 68.48-17.85 66.28-17.85L66.28-17.85Q64.69-17.85 63.35-17.33 62.01-16.82 61.01-15.94 60.01-15.06 59.45-13.89 58.88-12.72 58.88-11.4L58.88-11.4Q58.88-10.3 59.15-9.35 59.42-8.4 60.07-7.58 60.72-6.76 61.79-6.1 62.86-5.44 64.48-4.93L64.48-4.93Q63.01-5.03 61.8-5.55 60.59-6.08 59.73-6.93 58.86-7.79 58.38-8.94 57.91-10.08 57.91-11.4ZM105.49 0L93.5-19.9 88.23-19.9 88.23-23.56 104.98-23.56 104.98-19.9 99.73-19.9 109.03-4 117.99-19.9 112.4-19.9 112.4-23.56 128.66-23.56 128.66-19.9 123.63-19.9 111.84 0 105.49 0ZM107.2 1.71L113.01 1.71 124.8-18.19 130.41-18.19 130.41-22.19 131.39-22.19 131.39-17.26 125.43-17.26 113.64 2.64 107.56 2.64 107.2 1.71ZM109.39-6.98L103.05-18.19 107.2-18.19 106.73-22.19 107.71-22.19 107.71-17.26 104.76-17.26 109.96-7.91 109.39-6.98ZM113.59-17.26L113.59-18.19 115.79-18.19 115.23-17.26 113.59-17.26ZM89.69-17.26L89.69-18.19 93.23-18.19 93.79-17.26 89.69-17.26ZM134.68-11.33L134.68-11.33Q134.68-13.92 135.64-16.26 136.59-18.6 138.49-20.39 140.4-22.17 143.23-23.23 146.06-24.29 149.8-24.29L149.8-24.29Q153.31-24.29 156.07-23.35 158.83-22.41 160.76-20.63 162.69-18.85 163.7-16.27 164.71-13.7 164.71-10.4L164.71-10.4 140.03-10.4Q140.25-8.64 141.17-7.28 142.08-5.91 143.5-4.97 144.91-4.03 146.71-3.54 148.5-3.05 150.46-3.05L150.46-3.05Q152.04-3.05 153.69-3.31 155.34-3.56 156.8-4 158.27-4.44 159.42-4.99 160.56-5.54 161.17-6.13L161.17-6.13 162.1-6.13 164.4-3.64Q161.88-1.49 158.28-0.38 154.68 0.73 150.33 0.73L150.33 0.73Q146.55 0.73 143.63-0.2 140.72-1.12 138.73-2.76 136.74-4.39 135.71-6.59 134.68-8.79 134.68-11.33ZM142.38-8.69L166.37-8.69Q166.42-9.06 166.45-9.48 166.47-9.91 166.47-10.4L166.47-10.4Q166.47-12.48 166.04-14.37 165.62-16.26 164.8-17.88 163.98-19.51 162.79-20.85 161.59-22.19 160.08-23.14L160.08-23.14Q161.69-22.51 163.04-21.4 164.4-20.29 165.37-18.7 166.35-17.11 166.9-15.04 167.45-12.96 167.45-10.4L167.45-10.4Q167.45-10.21 167.44-9.91 167.42-9.62 167.4-9.25 167.38-8.89 167.34-8.51 167.3-8.13 167.25-7.76L167.25-7.76 144.18-7.76Q144.65-6.98 145.89-6.16 147.14-5.35 149.11-4.79L149.11-4.79Q147.89-4.79 146.83-5.08 145.77-5.37 144.9-5.88 144.04-6.4 143.39-7.12 142.74-7.84 142.38-8.69L142.38-8.69ZM140.18-13.45L159.07-13.45Q158.68-15.14 157.87-16.46 157.05-17.77 155.85-18.66 154.66-19.56 153.12-20.03 151.58-20.51 149.75-20.51L149.75-20.51Q147.77-20.51 146.15-19.98 144.52-19.46 143.3-18.52 142.08-17.58 141.29-16.28 140.5-14.99 140.18-13.45L140.18-13.45ZM143.52-14.5L142.4-14.5Q143.3-16.5 145.24-17.65 147.18-18.8 149.75-18.8L149.75-18.8Q150.8-18.8 151.79-18.63 152.78-18.46 153.62-18.1 154.46-17.75 155.1-17.24 155.73-16.72 156.1-16.06L156.1-16.06Q154.7-16.99 153.12-17.43 151.53-17.87 149.7-17.87L149.7-17.87Q147.58-17.87 145.96-16.99 144.35-16.11 143.52-14.5L143.52-14.5ZM137.64-1.07L137.64-1.07Q140.01 0.61 143.14 1.54 146.28 2.47 150.33 2.47L150.33 2.47Q154.29 2.47 157.74 1.56 161.2 0.66 163.98-1.2L163.98-1.2 164.64-0.49Q161.49 1.64 158.01 2.51 154.53 3.39 150.72 3.39L150.72 3.39Q145.77 3.39 142.51 2.2 139.25 1 137.64-1.07ZM173.67 0L173.67-3.91 180.29-3.91 180.29-26.49 173.67-26.49 173.67-30.4 191.93-30.4Q195.18-30.4 197.65-30.24 200.11-30.08 202.11-29.54L202.11-29.54Q207.36-28.1 209.98-24.58 212.59-21.07 212.59-15.21L212.59-15.21Q212.59-12.52 211.97-10.24 211.34-7.96 210.06-6.14 208.78-4.32 206.84-3.03 204.9-1.73 202.26-1.03L202.26-1.03Q200.28-0.49 197.78-0.24 195.28 0 192.18 0L192.18 0 173.67 0ZM175.23 1.71L191.4 1.71Q193.11 1.71 194.77 1.62 196.43 1.54 197.91 1.39 199.4 1.25 200.66 1.04 201.92 0.83 202.85 0.59L202.85 0.59Q205.48-0.1 207.62-1.5 209.76-2.91 211.24-4.92 212.73-6.93 213.54-9.53 214.35-12.13 214.35-15.21L214.35-15.21Q214.35-17.48 213.93-19.32 213.52-21.17 212.71-22.69 211.9-24.22 210.72-25.49 209.54-26.76 208-27.88L208-27.88Q209.78-26.98 211.15-25.78 212.51-24.58 213.44-23.02 214.37-21.46 214.86-19.52 215.35-17.58 215.35-15.21L215.35-15.21Q215.35-12.06 214.53-9.34 213.71-6.62 212.15-4.46 210.59-2.29 208.29-0.78 206 0.73 203.04 1.49L203.04 1.49Q200.97 2 198.09 2.32 195.2 2.64 191.4 2.64L191.4 2.64 175.23 2.64 175.23 1.71ZM185.78-3.91L193.35-3.91Q196.96-3.91 199.45-4.54 201.94-5.18 203.48-6.49 205.02-7.81 205.7-9.86 206.39-11.91 206.39-14.77L206.39-14.77 206.39-15.67Q206.39-18.46 205.69-20.48 204.99-22.51 203.43-23.85 201.87-25.2 199.34-25.84 196.82-26.49 193.13-26.49L193.13-26.49 185.78-26.49 185.78-3.91ZM187.49-5.37L187.49-24.78 192.67-24.78Q195.11-24.78 196.79-24.6 198.48-24.41 199.66-24.04 200.84-23.66 201.71-23.05 202.58-22.44 203.41-21.58L203.41-21.58Q202.5-22.14 201.52-22.57 200.53-23 199.28-23.28 198.04-23.56 196.43-23.71 194.81-23.85 192.67-23.85L192.67-23.85 188.47-23.85 188.47-5.37 187.49-5.37ZM175.14-23.85L175.14-24.78 179.26-24.78 179.26-23.85 175.14-23.85ZM221.86 0L221.86-3.91 228.23-3.91 228.23-26.49 221.5-26.49 221.5-30.4 239.03-30.4Q241.61-30.4 243.65-30.35 245.69-30.3 247.24-30.22 248.79-30.15 249.94-30.03 251.09-29.91 251.92-29.76L251.92-29.76Q253.92-29.39 255.32-28.71 256.73-28.03 257.6-27.08 258.48-26.12 258.89-24.94 259.29-23.75 259.29-22.39L259.29-22.39Q259.29-21.41 258.87-20.4 258.46-19.38 257.59-18.47 256.73-17.55 255.42-16.8 254.11-16.04 252.36-15.58L252.36-15.58Q254.14-15.36 255.54-14.71 256.95-14.06 257.91-13.12 258.87-12.18 259.37-11.01 259.88-9.84 259.88-8.57L259.88-8.57Q259.88-7.08 259.46-5.82 259.05-4.57 258.11-3.56 257.17-2.56 255.65-1.84 254.14-1.12 251.94-0.71L251.94-0.71Q249.57-0.27 246.51-0.13 243.44 0 239.44 0L239.44 0 221.86 0ZM223.43 1.71L239.44 1.71Q243.32 1.71 246.58 1.62 249.84 1.54 252.28 1.05L252.28 1.05Q255.02 0.51 256.82-0.5 258.63-1.51 259.69-2.81 260.75-4.1 261.18-5.62 261.61-7.13 261.61-8.67L261.61-8.67Q261.61-9.74 261.29-10.78 260.97-11.82 260.31-12.72 259.66-13.62 258.63-14.37 257.6-15.11 256.19-15.6L256.19-15.6Q258.7-16.85 259.88-18.54 261.05-20.24 261.05-22.39L261.05-22.39Q261.05-24.51 259.9-26.43 258.75-28.34 256.14-29.66L256.14-29.66Q257.6-29.3 258.7-28.6 259.8-27.91 260.55-26.98 261.29-26.05 261.66-24.93 262.02-23.8 262.02-22.58L262.02-22.58Q262.02-20.36 261.12-18.71 260.22-17.07 258.22-15.65L258.22-15.65Q260.56-14.4 261.57-12.61 262.59-10.82 262.59-8.67L262.59-8.67Q262.59-6.76 262.05-5.07 261.51-3.37 260.3-1.99 259.09-0.61 257.18 0.4 255.26 1.42 252.48 1.95L252.48 1.95Q250.01 2.44 246.83 2.54 243.64 2.64 239.44 2.64L239.44 2.64 223.43 2.64 223.43 1.71ZM233.8-16.97L242.86-16.97Q245.86-16.97 247.83-17.26 249.79-17.55 250.96-18.18 252.14-18.8 252.61-19.74 253.09-20.68 253.09-22L253.09-22Q253.09-23.32 252.26-24.37 251.43-25.42 249.6-25.98L249.6-25.98Q248.35-26.34 246.72-26.42 245.08-26.49 242.86-26.49L242.86-26.49 233.8-26.49 233.8-16.97ZM235.56-18.43L235.56-24.78 242.86-24.78Q244.71-24.78 246.06-24.69 247.4-24.61 248.35-24.39 249.3-24.17 249.96-23.82 250.62-23.46 251.13-22.92L251.13-22.92Q250.65-23.14 249.98-23.32 249.3-23.49 248.33-23.61 247.35-23.73 246.02-23.79 244.69-23.85 242.86-23.85L242.86-23.85 236.54-23.85 236.54-18.43 235.56-18.43ZM222.96-23.8L222.96-24.78 227.21-24.78 227.21-23.8 222.96-23.8ZM233.8-3.91L243.32-3.91Q245.84-3.91 247.64-4.04 249.45-4.17 250.77-4.66L250.77-4.66Q251.6-4.98 252.15-5.42 252.7-5.86 253.01-6.38 253.33-6.91 253.45-7.52 253.58-8.13 253.58-8.79L253.58-8.79Q253.58-10.4 252.59-11.58 251.6-12.77 249.52-13.38L249.52-13.38Q248.25-13.75 246.62-13.83 244.98-13.92 242.91-13.92L242.91-13.92 233.8-13.92 233.8-3.91ZM235.56-5.37L235.56-12.21 242.86-12.21Q244.71-12.21 246.13-12.08 247.55-11.96 248.58-11.71 249.62-11.45 250.35-11.07 251.09-10.69 251.6-10.16L251.6-10.16Q250.96-10.45 250.24-10.66 249.52-10.86 248.52-11.01 247.52-11.16 246.15-11.22 244.79-11.28 242.86-11.28L242.86-11.28 236.54-11.28 236.54-5.37 235.56-5.37Z" opacity="1" transform="matrix(1,0,0,1,0,0)" fill="#000000" class="undefined-text-0" data-fill-palette-color="primary" id="text-0"></path></svg></g></svg></g></svg></g></svg></g><g><svg viewBox="0 0 77.13426221888831 53.49611241938526" height="53.49611241938526" width="77.13426221888831"><g><svg xmlns="http://www.w3.org/2000/svg" xmlns:xlink="http://www.w3.org/1999/xlink" version="1.1" x="0" y="0" viewBox="6.744000434875488 20 86.51200103759766 60" enable-background="new 0 0 100 100" xml:space="preserve" height="53.49611241938526" width="77.13426221888831" class="icon-icon-0" data-fill-palette-color="accent" id="icon-0"><g fill="#046380" data-fill-palette-color="accent"><g fill="#046380" data-fill-palette-color="accent"><path d="M39 67.964c-0.486 0-0.974-0.118-1.418-0.356C36.608 67.085 36 66.069 36 64.964V35.036c0-1.105 0.608-2.121 1.582-2.644 0.975-0.522 2.157-0.468 3.078 0.145l22.527 14.965c0.837 0.557 1.34 1.494 1.34 2.499s-0.503 1.943-1.34 2.499L40.66 67.463C40.159 67.796 39.58 67.964 39 67.964zM42 40.631V59.37l14.105-9.369L42 40.631z" fill="#000000" data-fill-palette-color="accent"></path></g><g fill="#046380" data-fill-palette-color="accent"><path d="M81.83 80H18.169c-7.85 0-11.425-16.058-11.425-30.977C6.744 21.399 16.261 20 18.169 20H81.83c1.908 0 11.426 1.399 11.426 29.023C93.256 63.942 89.681 80 81.83 80zM18.428 74h63.145c1.36-0.807 5.684-6.811 5.684-24.977 0-17.831-4.286-22.657-5.503-23.023H18.247c-1.218 0.367-5.503 5.194-5.503 23.023C12.744 67.188 17.066 73.192 18.428 74z" fill="#000000" data-fill-palette-color="accent"></path></g></g></svg></g></svg></g></svg></g></svg><rect width="395.52" height="43.640871263759934" fill="none" stroke="none" visibility="hidden"></rect></g></svg></g></svg>